<svg width="32" height="32" viewBox="0 0 32 32" fill="none" xmlns="http://www.w3.org/2000/svg">
<path d="M1 4C1 2.34315 2.34315 1 4 1L28 1C29.6569 1 31 2.34315 31 4L31 28C31 29.6569 29.6569 31 28 31L4 31C2.34315 31 1 29.6569 1 28L1 4Z" stroke="url(#paint0_linear_165_133)" stroke-width="2"/>
<path d="M14.804 11.576V13.22H12.572V20H10.52V13.22H8.288V11.576H14.804ZM18.9898 11.576C19.8778 11.576 20.6538 11.752 21.3178 12.104C21.9818 12.456 22.4938 12.952 22.8538 13.592C23.2218 14.224 23.4058 14.956 23.4058 15.788C23.4058 16.612 23.2218 17.344 22.8538 17.984C22.4938 18.624 21.9778 19.12 21.3058 19.472C20.6418 19.824 19.8698 20 18.9898 20H15.8338V11.576H18.9898ZM18.8578 18.224C19.6338 18.224 20.2378 18.012 20.6698 17.588C21.1018 17.164 21.3178 16.564 21.3178 15.788C21.3178 15.012 21.1018 14.408 20.6698 13.976C20.2378 13.544 19.6338 13.328 18.8578 13.328H17.8858V18.224H18.8578Z" fill="#FEEDE1"/>
<defs>
<linearGradient id="paint0_linear_165_133" x1="16" y1="0" x2="16" y2="32" gradientUnits="userSpaceOnUse">
<stop stop-color="#632329"/>
<stop offset="0.49648" stop-color="#F25551"/>
<stop offset="1" stop-color="#50F283" stop-opacity="0.8"/>
</linearGradient>
</defs>
</svg>
